HIERARCHY
ROOT ui
{
	 OFFSET 0 0 0
	 CHANNELS 3 XPosition YPosition Z Position
	 EndSite
	 {
	 OFFSET 0 -1 0
	 }
}
ROOT li
{
	 OFFSET 0 0 0
	 CHANNELS 3 XPosition YPosition Z Position
	 EndSite
	 {
	 OFFSET 0 -1 0
	 }
}
ROOT ul
{
	 OFFSET 0 0 0
	 CHANNELS 3 XPosition YPosition Z Position
	 EndSite
	 {
	 OFFSET 0 -1 0
	 }
}
ROOT ll
{
	 OFFSET 0 0 0
	 CHANNELS 3 XPosition YPosition Z Position
	 EndSite
	 {
	 OFFSET 0 -1 0
	 }
}
ROOT tt
{
	 OFFSET 0 0 0
	 CHANNELS 3 XPosition YPosition Z Position
	 EndSite
	 {
	 OFFSET 0 -1 0
	 }
}
ROOT tb
{
	 OFFSET 0 0 0
	 CHANNELS 3 XPosition YPosition Z Position
	 EndSite
	 {
	 OFFSET 0 -1 0
	 }
}
ROOT td
{
	 OFFSET 0 0 0
	 CHANNELS 3 XPosition YPosition Z Position
	 EndSite
	 {
	 OFFSET 0 -1 0
	 }
}
ROOT v
{
	 OFFSET 0 0 0
	 CHANNELS 3 XPosition YPosition Z Position
	 EndSite
	 {
	 OFFSET 0 -1 0
	 }
}
ROOT bn
{
	 OFFSET 0 0 0
	 CHANNELS 3 XPosition YPosition Z Position
	 EndSite
	 {
	 OFFSET 0 -1 0
	 }
}
MOTION
Frames: 19
Frame Time: 0.002
0.0041351900100708005	-6.198599934577942E-5	0		0.46770974731445314	-2.29105712890625	0		-1.1389298095703124	-0.04686255645751953	0		-0.7770408935546875	-2.319968017578125	0		1.4941962890625	-0.44178338623046876	0		2.9650419921875	0.18303530883789063	0		4.47054736328125	0.30412423706054686	0		5.5534365234375	0.1554417724609375	0		-0.29166531372070315	5.888439453125	0		
-0.02486642265319824	0.006038218021392822	0		0.43381207275390626	-2.279863037109375	0		-1.0699852294921874	-0.04458493804931641	0		-0.7530782470703125	-2.31685400390625	0		1.49843212890625	-0.4232908020019531	0		2.951702880859375	0.17085519409179686	0		4.484203125	0.2914501037597656	0		5.55112060546875	0.14271739196777344	0		-0.291772705078125	5.89000146484375	0		
0.050986549377441404	0.0021962780952453614	0		0.4565916748046875	-2.287718994140625	0		-1.073136962890625	-0.04796638870239258	0		-0.7562569580078125	-2.322233642578125	0		1.4712120361328125	-0.4302149963378906	0		2.947735595703125	0.17750856018066405	0		4.47921728515625	0.2971290283203125	0		5.54833251953125	0.15943629455566405	0		-0.2918773498535156	5.89056689453125	0		
-0.023045032501220704	0.005144001007080078	0		0.43156167602539064	-2.285677978515625	0		-1.07221826171875	-0.04841371536254883	0		-0.7553283081054688	-2.3226796875	0		1.49003662109375	-0.4359840698242187	0		2.96363232421875	0.1758008575439453	0		4.47602392578125	0.2907811584472656	0		5.55242138671875	0.14125442504882812	0		-0.290984619140625	5.890123046875	0		
0.049775619506835934	-0.0016197710037231445	0		0.46728717041015627	-2.297753173828125	0		-1.1393548583984374	-0.05158712005615235	0		-0.8133826293945312	-2.322019287109375	0		1.4919454345703125	-0.43742611694335937	0		2.954818359375	0.18956639099121095	0		4.47491162109375	0.2884075622558594	0		5.55602734375	0.1525303192138672	0		-0.2900838317871094	5.88969189453125	0		
-0.021198007583618166	0.00429981279373169	0		0.42041146850585936	-2.28727734375	0		-1.06631591796875	-0.04634128952026367	0		-0.747333251953125	-2.316642333984375	0		1.5079771728515625	-0.432113037109375	0		2.97036572265625	0.16888993835449218	0		4.48508984375	0.30184268188476565	0		5.5566845703125	0.15185289001464844	0		-0.2891866455078125	5.88927685546875	0		
0.004681707859039307	0.0024413859844207766	0		0.4348211669921875	-2.26091650390625	0		-1.0694681396484376	-0.049666248321533206	0		-0.7823596801757813	-2.313374267578125	0		1.4810345458984375	-0.4239849243164063	0		2.960732666015625	0.1937059783935547	0		4.47188232421875	0.2957256774902344	0		5.5543837890625	0.13922711181640626	0		-0.2873262939453125	5.88786181640625	0		
-0.01942689895629883	0.0035298640727996827	0		0.461175537109375	-2.28976611328125	0		-1.068599365234375	-0.05004491424560547	0		-0.7496171264648438	-2.32134326171875	0		1.493661865234375	-0.4375736083984375	0		2.96724755859375	0.17423529052734374	0		4.483748046875	0.2951650695800781	0		5.55500390625	0.1386165771484375	0		-0.2874621887207031	5.88850439453125	0		
-0.021679357528686525	-7.660719752311707E-4	0		0.4344735107421875	-2.26460205078125	0		-1.141746826171875	-0.048030967712402346	0		-0.7867802734375	-2.32099462890625	0		1.4735068359375	-0.43653106689453125	0		2.963198486328125	0.180986328125	0		4.48456787109375	0.2948306884765625	0		5.55558984375	0.138044921875	0		-0.28666436767578124	5.8881513671875	0		
-0.0178421573638916	0.002848793029785156	0		0.47161053466796876	-2.2996083984375	0		-1.061126220703125	-0.056844478607177736	0		-0.7480137329101563	-2.3220302734375	0		1.4893623046875	-0.43213247680664063	0		2.978588623046875	0.1603952941894531	0		4.48329345703125	0.2925575256347656	0		5.55680908203125	0.13229354858398437	0		-0.2839805908203125	5.88478466796875	0		
-0.005125161170959473	0.0033214039802551268	0		0.4525094909667969	-2.28954296875	0		-1.12624755859375	-0.04693383407592774	0		-0.8022382202148437	-2.31832080078125	0		1.4969339599609375	-0.43955947875976564	0		2.9669755859375	0.1973373565673828	0		4.4981015625	0.2980115661621094	0		5.559580078125	0.14900749206542968	0		-0.25492132568359377	5.90495654296875	0		
-0.01650586700439453	0.0022624330520629884	0		0.46820855712890624	-2.28710009765625	0		-1.06162255859375	-0.04840456771850586	0		-0.7446202392578125	-2.320660400390625	0		1.506810791015625	-0.427002685546875	0		2.970165771484375	0.1730181884765625	0		4.4897744140625	0.2999169616699219	0		5.56003466796875	0.14856398010253907	0		-0.2846403198242187	5.887232421875	0		
-0.015933392524719238	0.002004307985305786	0		0.413282470703125	-2.26032421875	0		-1.0651046142578124	-0.05159309387207031	0		-0.7440368041992188	-2.320921875	0		1.4971649169921875	-0.43906655883789064	0		2.960998291015625	0.18695675659179686	0		4.49236376953125	0.30064288330078126	0		5.55749853515625	0.13618234252929687	0		-0.2840955505371094	5.88697314453125	0		
-0.01849270248413086	-0.002175694942474365	0		0.4652435913085938	-2.29151513671875	0		-1.06866357421875	-0.05575959777832031	0		-0.7476033935546875	-2.326086669921875	0		1.49768115234375	-0.43929550170898435	0		2.966381103515625	0.17964347839355468	0		4.487748046875	0.2935218811035156	0		5.55443212890625	0.153276123046875	0		-0.28360943603515626	5.88673583984375	0		
-0.014954401969909667	0.00155241596698761	0		0.4247077331542969	-2.29197021484375	0		-1.1340391845703126	-0.046761127471923826	0		-0.7810293579101563	-2.320677978515625	0		1.5012215576171875	-0.4355602722167969	0		2.972103271484375	0.19334693908691405	0		4.49132177734375	0.29927084350585936	0		5.5652900390625	0.12998158264160156	0		-0.28317230224609374	5.8865185546875	0		
0.060423240661621094	-0.0020305891036987303	0		0.47023031616210936	-2.287997802734375	0		-1.0537362060546875	-0.05444097137451172	0		-0.7764995727539062	-2.315953125	0		1.4868199462890626	-0.426474365234375	0		2.96125439453125	0.17836968994140626	0		4.48174951171875	0.29927944946289065	0		5.5614482421875	0.14717340087890626	0		-0.2827715759277344	5.88632080078125	0		
-0.014125706672668457	0.0011764529943466186	0		0.4426647033691406	-2.286657470703125	0		-1.0592412109375	-0.04951460266113281	0		-0.7421865844726563	-2.32176318359375	0		1.5092008056640625	-0.4280535888671875	0		2.9818916015625	0.19083135986328126	0		4.48903759765625	0.2929911804199219	0		5.55535693359375	0.15238113403320314	0		-0.2823956298828125	5.886140625	0		
0.06120627593994141	-0.002372209072113037	0		0.46899569702148436	-2.290298828125	0		-1.0629140625	-0.05260736846923828	0		-0.7438322143554688	-2.323891845703125	0		1.47838623046875	-0.43863577270507814	0		2.97214501953125	0.18386628723144532	0		4.4925283203125	0.29878964233398436	0		5.5590634765625	0.1346800994873047	0		-0.282037353515625	5.8859765625	0		
-0.04143109512329102	-0.0016167420148849487	0		0.38789886474609375	-2.260934814453125	0		-1.06662353515625	-0.05668460464477539	0		-0.7455153198242187	-2.3270048828125	0		1.499729248046875	-0.44016619873046875	0		2.96354638671875	0.18589506530761718	0		4.4897802734375	0.2927144775390625	0		5.55291845703125	0.13647596740722656	0		-0.2816952209472656	5.8858271484375	0		
